<svg width="100%" height="100%" viewBox="0 0 280 568" version="1.1" xmlns="http://www.w3.org/2000/svg" xmlns:xlink="http://www.w3.org/1999/xlink" xml:space="preserve" xmlns:serif="http://www.serif.com/" style="fill-rule:evenodd;clip-rule:evenodd;stroke-linejoin:round;stroke-miterlimit:1.41421;">
    <path id="shadow" d="M138.574,408l-138.564,80l138.564,80l138.564,-80l-138.564,-80Z" style="fill-opacity:0.2;"></path>
    <path d="M166.287,337l-55.425,0l0,151l27.712,16l27.713,-16l0,-151Z" style="fill:#332b1c;"></path>
    <clipPath id="_clip1">
        <path d="M166.287,337l-55.425,0l0,151l27.712,16l27.713,-16l0,-151Z"></path>
    </clipPath>
    <g clip-path="url(#_clip1)">
        <rect x="138.574" y="400" width="41.569" height="128" style="fill:#43351a;"></rect>
    </g>
    <path d="M138.574,440l0,12l27.713,-16l0,-12l-27.713,16Z" style="fill:#302511;"></path>
    <path d="M138.574,440l0,12l-27.712,-16l0,-12l27.712,16Z" style="fill:#231d13;"></path>
    <g>
        <path d="M277.138,360l-138.564,-240l-138.564,240l138.564,80l138.564,-80Z" style="fill:#1f5721;"></path>
        <clipPath id="_clip2">
            <path d="M277.138,360l-138.564,-240l-138.564,240l138.564,80l138.564,-80Z"></path>
        </clipPath>
        <g clip-path="url(#_clip2)">
            <rect x="138.574" y="280.923" width="154.019" height="169.077" style="fill:#236b17;"></rect>
            <path d="M138.55,431.996c0.575,-0.206 10.138,-3.634 12.547,-4.915c4.542,-2.414 9.508,-8.204 13.674,-11.075c3.914,-2.696 12.729,-4.777 16.326,-6.312c2.806,-1.199 7.898,-6.91 16.152,-11.856c4.687,-2.808 10.999,-3.502 15.496,-5.646c2.243,-1.069 7.31,-6.686 13.914,-10.723c4.673,-2.858 6.813,-1.529 11.077,-3.613c2.122,-1.037 6.496,-6.121 13.386,-10.652c4.642,-3.053 9.92,-3.107 14.331,-5.549c5.43,-3.005 9.547,-8.081 9.547,-8.081l2.948,6.42l-139.374,79.97l0,0.03l-0.025,-0.015l-0.026,0.015l0,-0.03l-139.374,-78.97l2.948,-8.42c0,0 3.632,5.612 10.545,9.352c4.113,2.225 10.68,1.85 14.784,4.562c5.266,3.481 8.998,9.417 11.479,10.492c5.035,2.18 12.727,3.893 17.765,6.895c6.205,3.697 10.656,8.88 13.136,10.164c4.899,2.534 11.389,3.639 16.183,6.989c6.739,4.711 10.712,9.684 13.011,10.666c3.598,1.535 12.412,3.616 16.326,6.312c4.166,2.871 6.633,4.329 10.674,7.994c2.025,1.836 11.99,5.776 12.55,5.996Z" style="fill:#a8bca7;"></path>
        </g>
        <path d="M249.426,280l-110.852,-192l-110.851,192l110.851,64l110.852,-64Z" style="fill:#1f5721;"></path>
        <clipPath id="_clip3">
            <path d="M249.426,280l-110.852,-192l-110.851,192l110.851,64l110.852,-64Z"></path>
        </clipPath>
        <g clip-path="url(#_clip3)">
            <rect x="138.574" y="192" width="117.779" height="172" style="fill:#236b17;"></rect>
            <path d="M138.55,335.996c0.575,-0.206 10.138,-3.634 12.547,-4.915c4.542,-2.414 9.508,-8.204 13.674,-11.075c3.914,-2.696 12.729,-4.777 16.326,-6.312c2.806,-1.199 7.898,-6.91 16.152,-11.856c4.687,-2.808 10.999,-3.502 15.496,-5.646c2.243,-1.069 7.31,-6.686 13.914,-10.723c4.673,-2.858 6.813,-1.529 11.077,-3.613c5.311,-2.596 12.264,-8.282 12.264,-8.282l-0.052,6.42l-111.374,63.97l0,0.03l-0.025,-0.015l-0.026,0.015l0,-0.03l-111.374,-63.97l-0.052,-7.42c0,0 4.144,5.087 11.808,8.406c5.035,2.18 12.727,3.893 17.765,6.895c6.205,3.697 10.656,8.88 13.136,10.164c4.899,2.534 11.389,3.639 16.183,6.989c6.739,4.711 10.712,9.684 13.011,10.666c3.598,1.535 12.412,3.616 16.326,6.312c4.166,2.871 6.633,4.329 10.674,7.994c2.025,1.836 11.99,5.776 12.55,5.996Z" style="fill:#a8bca7;"></path>
        </g>
        <path d="M221.713,200l-83.139,-144l-83.138,144l83.138,48l83.139,-48Z" style="fill:#1f5721;"></path>
        <clipPath id="_clip4">
            <path d="M221.713,200l-83.139,-144l-83.138,144l83.138,48l83.139,-48Z"></path>
        </clipPath>
        <g clip-path="url(#_clip4)">
            <rect x="138.574" y="88" width="90.067" height="184" style="fill:#236b17;"></rect>
            <path d="M138.55,239.996c0.575,-0.206 10.138,-3.634 12.547,-4.915c4.542,-2.414 9.508,-8.204 13.674,-11.075c3.914,-2.696 12.729,-4.777 16.326,-6.312c2.806,-1.199 7.898,-6.91 16.152,-11.856c4.687,-2.808 10.999,-3.502 15.496,-5.646c5.806,-2.767 9.255,-6.618 9.255,-6.618l-0.052,6.42l-83.374,47.97l0,0.03l-0.025,-0.015l-0.026,0.015l0,-0.03l-83.374,-47.97l1.948,-8.42c0,0 5.15,6.553 12.709,10.465c4.899,2.534 11.389,3.639 16.183,6.989c6.739,4.711 10.712,9.684 13.011,10.666c3.598,1.535 12.412,3.616 16.326,6.312c4.166,2.871 6.633,4.329 10.674,7.994c2.025,1.836 11.99,5.776 12.55,5.996Z" style="fill:#a8bca7;"></path>
        </g>
        <path d="M194,120l-55.426,-96l-55.425,96l55.425,32l55.426,-32Z" style="fill:#1f5721;"></path>
        <clipPath id="_clip5">
            <path d="M194,120l-55.426,-96l-55.425,96l55.425,32l55.426,-32Z"></path>
        </clipPath>
        <g clip-path="url(#_clip5)">
            <rect x="138.574" y="-16" width="69.282" height="184" style="fill:#236b17;"></rect>
            <path d="M138.55,143.996c0.575,-0.206 10.138,-3.634 12.547,-4.915c4.542,-2.414 9.508,-8.204 13.674,-11.075c3.914,-2.696 12.729,-4.777 16.326,-6.312c6.457,-2.757 12.903,-10.12 12.903,-10.12l-0.052,8.42l-55.374,31.97l0,0.03l-0.025,-0.015l-0.026,0.015l0,-0.03l-55.374,-31.97l1.948,-8.42c0,0 7.446,10.363 13.903,13.12c3.598,1.535 12.412,2.616 16.326,5.312c4.166,2.871 6.633,4.329 10.674,7.994c2.025,1.836 11.99,5.776 12.55,5.996Z" style="fill:#a8bca7;"></path>
        </g>
    </g>
    <g>
        <path d="M138.574,168l0,-16l41.57,-24l6.928,12l-48.498,28Z" style="fill:#005300;"></path>
        <path d="M138.574,264l0,-16l69.282,-40l6.929,12l-76.211,44Z" style="fill:#005300;"></path>
        <path d="M138.574,360l0,-16l96.995,-56l6.928,12l-103.923,60Z" style="fill:#005300;"></path>
    </g>
    <g>
        <path d="M138.574,168l0,-16l-41.569,-24l-6.928,12l48.497,28Z" style="fill:#134014;"></path>
        <path d="M138.574,264l0,-16l-69.282,-40l-6.928,12l76.21,44Z" style="fill:#134014;"></path>
        <path d="M138.574,360l0,-16l-96.995,-56l-6.928,12l103.923,60Z" style="fill:#134014;"></path>
    </g>
    <g id="globe_quartersize">
        <path d="M101.031,280.327l-2.296,-1.325l3.465,-2.001l6.93,4.001l0,4.002l0.01,9.989l-0.01,-9.989l10.395,-6.002l0.01,10.001l-0.02,0.012l-1.723,2.983l-8.662,5.002l-8.662,-5.002l-1.733,-3.001l0.01,0.006l-0.01,-10.001l2.296,1.325Zm8.099,15.823l0,-1.151l0,1.151Zm10.395,-17.148l-10.395,6.002l0,-4.002l6.93,-4.001l3.465,2.001Zm-17.325,-2.001l6.93,4.001l6.93,-4.001l-6.93,-4.001l-6.93,4.001Z" style="fill:#fe0;"></path>
        <path d="M119.525,279.002l-10.395,6.002l0.01,10.001l10.395,-6.002l-0.01,-10.001Z" style="fill:#ffda00;"></path>
        <path d="M98.735,279.002l10.395,6.002l0.01,10.001l-10.395,-6.002l-0.01,-10.001Z" style="fill:#f1bc00;"></path>
        <path d="M100.468,291.998l8.662,5.002l0,-2.001l-10.395,-6.002l1.733,3.001Z" style="fill:#e5ad00;"></path>
        <path d="M117.792,291.998l-8.662,5.002l0,-2.001l10.395,-6.002l-1.733,3.001Z" style="fill:#f3c800;"></path>
        <path d="M98.735,279.002l10.395,6.002l0,-4.002l-6.93,-4.001l-3.465,2.001Z" style="fill:#f8c700;"></path>
        <path d="M119.525,279.002l-10.395,6.002l0,-4.002l6.93,-4.001l3.465,2.001Z" style="fill:#ffe200;"></path>
        <path d="M102.2,277.001l6.93,4.001l6.93,-4.001l-6.93,-4.001l-6.93,4.001Z" style="fill:#fe0;"></path>
    </g>
    <g id="globe_quartersize1" serif:id="globe_quartersize">
        <path d="M220.542,327.327l-2.296,-1.325l3.465,-2.001l6.93,4.002l0,4.001l0.01,9.989l-0.01,-9.989l10.395,-6.002l0.01,10.001l-0.02,0.012l-1.723,2.983l-8.662,5.002l-8.662,-5.002l-1.733,-3.001l0.01,0.006l-0.01,-10.001l2.296,1.325Zm8.099,15.823l0,-1.151l0,1.151Zm10.395,-17.148l-10.395,6.002l0,-4.001l6.93,-4.002l3.465,2.001Zm-17.325,-2.001l6.93,4.002l6.93,-4.002l-6.93,-4.001l-6.93,4.001Z" style="fill:#fe0;"></path>
        <path d="M239.036,326.002l-10.395,6.002l0.01,10.001l10.395,-6.002l-0.01,-10.001Z" style="fill:#ffda00;"></path>
        <path d="M218.246,326.002l10.395,6.002l0.01,10.001l-10.395,-6.002l-0.01,-10.001Z" style="fill:#f1bc00;"></path>
        <path d="M219.979,338.998l8.662,5.002l0,-2.001l-10.395,-6.002l1.733,3.001Z" style="fill:#e5ad00;"></path>
        <path d="M237.303,338.998l-8.662,5.002l0,-2.001l10.395,-6.002l-1.733,3.001Z" style="fill:#f3c800;"></path>
        <path d="M218.246,326.002l10.395,6.002l0,-4.001l-6.93,-4.002l-3.465,2.001Z" style="fill:#f8c700;"></path>
        <path d="M239.036,326.002l-10.395,6.002l0,-4.001l6.93,-4.002l3.465,2.001Z" style="fill:#ffe200;"></path>
        <path d="M221.711,324.001l6.93,4.002l6.93,-4.002l-6.93,-4.001l-6.93,4.001Z" style="fill:#fe0;"></path>
    </g>
    <g id="globe_red">
        <path d="M165.118,183.326l-2.295,-1.325l3.465,-2.001l6.93,4.001l0,4.002l0.01,9.989l-0.01,-9.989l10.395,-6.002l0.01,10.001l-0.02,0.012l-1.723,2.983l-8.662,5.002l-8.662,-5.002l-1.733,-3.001l0.01,0.006l-0.01,-10.001l2.295,1.325Zm8.1,15.823l0,-1.151l0,1.151Zm10.395,-17.148l-10.395,6.002l0,-4.002l6.93,-4.001l3.465,2.001Zm-17.325,-2.001l6.93,4.001l6.93,-4.001l-6.93,-4.001l-6.93,4.001Z" style="fill:#ab0009;"></path>
        <path d="M183.608,182.004l-10.395,6.002l0.01,10.001l10.395,-6.002l-0.01,-10.001Z" style="fill:#c10010;"></path>
        <path d="M162.818,182.004l10.395,6.002l0.01,10.001l-10.395,-6.002l-0.01,-10.001Z" style="fill:#aa0008;"></path>
        <path d="M164.55,195l8.663,5.001l0,-2l-10.395,-6.002l1.732,3.001Z" style="fill:#8f0a12;"></path>
        <path d="M181.875,195l-8.662,5.001l0,-2l10.395,-6.002l-1.733,3.001Z" style="fill:#a41200;"></path>
        <path d="M162.818,182.004l10.395,6.002l0,-4.002l-6.93,-4.001l-3.465,2.001Z" style="fill:#c6000b;"></path>
        <path d="M183.608,182.004l-10.395,6.002l0,-4.002l6.93,-4.001l3.465,2.001Z" style="fill:#e51806;"></path>
        <path d="M166.283,180.003l6.93,4.001l6.93,-4.001l-6.93,-4.002l-6.93,4.002Z" style="fill:#ed1906;"></path>
    </g>
    <g id="globe_red1" serif:id="globe_red">
        <path d="M165.116,371.327l-2.296,-1.325l3.465,-2.001l6.93,4.002l0,4.001l0.011,9.989l-0.011,-9.989l10.395,-6.002l0.01,10.001l-0.02,0.012l-1.722,2.983l-8.663,5.002l-8.662,-5.002l-1.733,-3.001l0.011,0.006l-0.011,-10.001l2.296,1.325Zm8.099,15.823l0,-1.151l0,1.151Zm10.395,-17.148l-10.395,6.002l0,-4.001l6.93,-4.002l3.465,2.001Zm-17.325,-2.001l6.93,4.002l6.93,-4.002l-6.93,-4.001l-6.93,4.001Z" style="fill:#ab0009;"></path>
        <path d="M183.605,370.005l-10.395,6.002l0.01,10.001l10.395,-6.002l-0.01,-10.001Z" style="fill:#c10010;"></path>
        <path d="M162.815,370.005l10.395,6.002l0.01,10.001l-10.394,-6.002l-0.011,-10.001Z" style="fill:#aa0008;"></path>
        <path d="M164.548,383.001l8.662,5.002l0,-2.001l-10.395,-6.002l1.733,3.001Z" style="fill:#8f0a12;"></path>
        <path d="M181.873,383.001l-8.663,5.002l0,-2.001l10.395,-6.002l-1.732,3.001Z" style="fill:#a41200;"></path>
        <path d="M162.815,370.005l10.395,6.002l0,-4.001l-6.93,-4.002l-3.465,2.001Z" style="fill:#c6000b;"></path>
        <path d="M183.605,370.005l-10.395,6.002l0,-4.001l6.93,-4.002l3.465,2.001Z" style="fill:#e51806;"></path>
        <path d="M166.28,368.004l6.93,4.002l6.93,-4.002l-6.93,-4.001l-6.93,4.001Z" style="fill:#ed1906;"></path>
    </g>
    <g id="globe_red2" serif:id="globe_red">
        <path d="M66.392,248.326l-2.295,-1.326l3.465,-2l6.93,4.001l0,4.001l0.01,9.99l-0.01,-9.99l10.395,-6.002l0.01,10.001l-0.021,0.012l-1.722,2.983l-8.662,5.002l-8.663,-5.002l-1.732,-3.001l0.01,0.006l-0.01,-10.001l2.295,1.326Zm8.1,15.822l0,-1.151l0,1.151Zm10.395,-17.148l-10.395,6.002l0,-4.001l6.93,-4.001l3.465,2Zm-17.325,-2l6.93,4.001l6.93,-4.001l-6.93,-4.002l-6.93,4.002Z" style="fill:#ab0009;"></path>
        <path d="M84.881,247.003l-10.394,6.002l0.01,10.001l10.395,-6.002l-0.011,-10.001Z" style="fill:#c10010;"></path>
        <path d="M64.092,247.003l10.395,6.002l0.01,10.001l-10.395,-6.002l-0.01,-10.001Z" style="fill:#aa0008;"></path>
        <path d="M65.824,259.999l8.663,5.002l0,-2.001l-10.395,-6.002l1.732,3.001Z" style="fill:#8f0a12;"></path>
        <path d="M83.149,259.999l-8.662,5.002l0,-2.001l10.394,-6.002l-1.732,3.001Z" style="fill:#a41200;"></path>
        <path d="M64.092,247.003l10.395,6.002l0,-4.001l-6.93,-4.002l-3.465,2.001Z" style="fill:#c6000b;"></path>
        <path d="M84.881,247.003l-10.394,6.002l0,-4.001l6.929,-4.002l3.465,2.001Z" style="fill:#e51806;"></path>
        <path d="M67.557,245.002l6.93,4.002l6.929,-4.002l-6.929,-4.001l-6.93,4.001Z" style="fill:#ed1906;"></path>
    </g>
    <g id="globe_blue">
        <path d="M196.295,250.326l-2.295,-1.325l3.465,-2.001l6.93,4.001l0,4.002l0.01,9.989l-0.01,-9.989l10.395,-6.002l0.01,10.001l-0.021,0.012l-1.722,2.983l-8.662,5.002l-8.663,-5.002l-1.732,-3.001l0.01,0.006l-0.01,-10.001l2.295,1.325Zm8.1,15.823l0,-1.151l0,1.151Zm10.395,-17.148l-10.395,6.002l0,-4.002l6.93,-4.001l3.465,2.001Zm-17.325,-2.001l6.93,4.001l6.93,-4.001l-6.93,-4.001l-6.93,4.001Z" style="fill:#00829f;"></path>
        <path d="M214.785,249.004l-10.395,6.002l0.01,10.001l10.395,-6.002l-0.01,-10.001Z" style="fill:#009ab4;"></path>
        <path d="M193.995,249.004l10.395,6.002l0.01,10.001l-10.395,-6.002l-0.01,-10.001Z" style="fill:#00829f;"></path>
        <path d="M195.727,262l8.663,5.001l0,-2l-10.395,-6.002l1.732,3.001Z" style="fill:#006a85;"></path>
        <path d="M213.052,262l-8.662,5.001l0,-2l10.395,-6.002l-1.733,3.001Z" style="fill:#008499;"></path>
        <path d="M193.995,249.004l10.395,6.002l0,-4.002l-6.93,-4.001l-3.465,2.001Z" style="fill:#009cb8;"></path>
        <path d="M214.785,249.004l-10.395,6.002l0,-4.002l6.93,-4.001l3.465,2.001Z" style="fill:#00b1d7;"></path>
        <path d="M197.46,247.003l6.93,4.001l6.93,-4.001l-6.93,-4.002l-6.93,4.002Z" style="fill:#00c1de;"></path>
    </g>
    <g id="globe_blue1" serif:id="globe_blue">
        <path d="M95.836,367.326l-2.295,-1.325l3.465,-2.001l6.93,4.001l0,4.002l0.01,9.989l-0.01,-9.989l10.395,-6.002l0.01,10.001l-0.021,0.012l-1.722,2.983l-8.662,5.002l-8.663,-5.002l-1.732,-3.001l0.01,0.006l-0.01,-10.001l2.295,1.325Zm8.1,15.823l0,-1.151l0,1.151Zm10.395,-17.148l-10.395,6.002l0,-4.002l6.93,-4.001l3.465,2.001Zm-17.325,-2.001l6.93,4.001l6.93,-4.001l-6.93,-4.001l-6.93,4.001Z" style="fill:#00829f;"></path>
        <path d="M114.326,366.004l-10.395,6.002l0.01,10.001l10.395,-6.002l-0.01,-10.001Z" style="fill:#009ab4;"></path>
        <path d="M93.536,366.004l10.395,6.002l0.01,10.001l-10.395,-6.002l-0.01,-10.001Z" style="fill:#00829f;"></path>
        <path d="M95.268,379l8.663,5.001l0,-2l-10.395,-6.002l1.732,3.001Z" style="fill:#006a85;"></path>
        <path d="M112.593,379l-8.662,5.001l0,-2l10.395,-6.002l-1.733,3.001Z" style="fill:#008499;"></path>
        <path d="M93.536,366.004l10.395,6.002l0,-4.002l-6.93,-4.001l-3.465,2.001Z" style="fill:#009cb8;"></path>
        <path d="M114.326,366.004l-10.395,6.002l0,-4.002l6.93,-4.001l3.465,2.001Z" style="fill:#00b1d7;"></path>
        <path d="M97.001,364.003l6.93,4.001l6.93,-4.001l-6.93,-4.002l-6.93,4.002Z" style="fill:#00c1de;"></path>
    </g>
    <g id="globe_blue2" serif:id="globe_blue">
        <path d="M99.27,173.305l-2.296,-1.325l3.465,-2.001l6.93,4.002l0,4.001l0.01,9.989l-0.01,-9.989l10.395,-6.002l0.01,10.001l-0.02,0.012l-1.722,2.983l-8.663,5.002l-8.662,-5.002l-1.733,-3.001l0.011,0.006l-0.011,-10.001l2.296,1.325Zm8.099,15.823l0,-1.151l0,1.151Zm10.395,-17.148l-10.395,6.002l0,-4.001l6.93,-4.002l3.465,2.001Zm-17.325,-2.001l6.93,4.002l6.93,-4.002l-6.93,-4.001l-6.93,4.001Z" style="fill:#00829f;"></path>
        <path d="M117.759,171.983l-10.395,6.002l0.01,10.001l10.395,-6.002l-0.01,-10.001Z" style="fill:#009ab4;"></path>
        <path d="M96.969,171.983l10.395,6.002l0.01,10.001l-10.395,-6.002l-0.01,-10.001Z" style="fill:#00829f;"></path>
        <path d="M98.702,184.979l8.662,5.002l0,-2.001l-10.395,-6.002l1.733,3.001Z" style="fill:#006a85;"></path>
        <path d="M116.026,184.979l-8.662,5.002l0,-2.001l10.395,-6.002l-1.733,3.001Z" style="fill:#008499;"></path>
        <path d="M96.969,171.983l10.395,6.002l0,-4.002l-6.93,-4.001l-3.465,2.001Z" style="fill:#009cb8;"></path>
        <path d="M117.759,171.983l-10.395,6.002l0,-4.002l6.93,-4.001l3.465,2.001Z" style="fill:#00b1d7;"></path>
        <path d="M100.434,169.982l6.93,4.001l6.93,-4.001l-6.93,-4.001l-6.93,4.001Z" style="fill:#00c1de;"></path>
    </g>
    <g id="globe_blue3" serif:id="globe_blue">
        <path d="M147.8,84.324l-2.295,-1.325l3.465,-2.001l6.93,4.002l0,4.001l0.01,9.989l-0.01,-9.989l10.395,-6.002l0.01,10.001l-0.02,0.012l-1.723,2.983l-8.662,5.002l-8.662,-5.002l-1.733,-3.001l0.01,0.006l-0.01,-10.001l2.295,1.325Zm8.1,15.823l0,-1.151l0,1.151Zm10.395,-17.148l-10.395,6.002l0,-4.001l6.93,-4.002l3.465,2.001Zm-17.325,-2.001l6.93,4.002l6.93,-4.002l-6.93,-4.001l-6.93,4.001Z" style="fill:#00829f;"></path>
        <path d="M166.29,83.002l-10.395,6.002l0.01,10.001l10.395,-6.002l-0.01,-10.001Z" style="fill:#009ab4;"></path>
        <path d="M145.5,83.002l10.395,6.002l0.01,10.001l-10.395,-6.002l-0.01,-10.001Z" style="fill:#00829f;"></path>
        <path d="M147.232,95.998l8.663,5.002l0,-2.001l-10.395,-6.002l1.732,3.001Z" style="fill:#006a85;"></path>
        <path d="M164.557,95.998l-8.662,5.002l0,-2.001l10.395,-6.002l-1.733,3.001Z" style="fill:#008499;"></path>
        <path d="M145.5,83.002l10.395,6.002l0,-4.001l-6.93,-4.002l-3.465,2.001Z" style="fill:#009cb8;"></path>
        <path d="M166.29,83.002l-10.395,6.002l0,-4.001l6.93,-4.002l3.465,2.001Z" style="fill:#00b1d7;"></path>
        <path d="M148.965,81.001l6.93,4.002l6.93,-4.002l-6.93,-4.001l-6.93,4.001Z" style="fill:#00c1de;"></path>
    </g>
    <g id="globe_purple">
        <path d="M110.229,92.326l-2.296,-1.325l3.465,-2.001l6.93,4.001l0,4.002l0.01,9.989l-0.01,-9.989l10.395,-6.002l0.01,10.001l-0.02,0.012l-1.722,2.983l-8.663,5.002l-8.662,-5.002l-1.733,-3.001l0.011,0.006l-0.011,-10.001l2.296,1.325Zm8.099,15.823l0,-1.151l0,1.151Zm10.395,-17.148l-10.395,6.002l0,-4.002l6.93,-4.001l3.465,2.001Zm-17.325,-2.001l6.93,4.001l6.93,-4.001l-6.93,-4.001l-6.93,4.001Z" style="fill:#3716a2;"></path>
        <path d="M128.718,91.004l-10.395,6.002l0.01,10.001l10.395,-6.002l-0.01,-10.001Z" style="fill:#7d12b7;"></path>
        <path d="M107.928,91.004l10.395,6.002l0.01,10.001l-10.395,-6.002l-0.01,-10.001Z" style="fill:#5a11a2;"></path>
        <path d="M109.661,104l8.662,5.001l0,-2l-10.395,-6.002l1.733,3.001Z" style="fill:#461788;"></path>
        <path d="M126.985,104l-8.662,5.001l0,-2l10.395,-6.002l-1.733,3.001Z" style="fill:#71009c;"></path>
        <path d="M107.928,91.004l10.395,6.002l0,-4.002l-6.93,-4.001l-3.465,2.001Z" style="fill:#7d00bc;"></path>
        <path d="M128.718,91.004l-10.395,6.002l0,-4.002l6.93,-4.001l3.465,2.001Z" style="fill:#9811db;"></path>
        <path d="M111.393,89.003l6.93,4.001l6.93,-4.001l-6.93,-4.002l-6.93,4.002Z" style="fill:#a90ce2;"></path>
    </g>
    <g id="globe_purple1" serif:id="globe_purple">
        <path d="M40.411,343.326l-2.296,-1.325l3.465,-2.001l6.93,4.001l0,4.002l0.01,9.989l-0.01,-9.989l10.395,-6.002l0.01,10.001l-0.02,0.012l-1.722,2.983l-8.663,5.002l-8.662,-5.002l-1.733,-3.001l0.011,0.006l-0.011,-10.001l2.296,1.325Zm8.099,15.823l0,-1.151l0,1.151Zm10.395,-17.148l-10.395,6.002l0,-4.002l6.93,-4.001l3.465,2.001Zm-17.325,-2.001l6.93,4.001l6.93,-4.001l-6.93,-4.001l-6.93,4.001Z" style="fill:#3716a2;"></path>
        <path d="M58.9,342.004l-10.395,6.002l0.01,10.001l10.395,-6.002l-0.01,-10.001Z" style="fill:#7d12b7;"></path>
        <path d="M38.11,342.004l10.395,6.002l0.01,10.001l-10.395,-6.002l-0.01,-10.001Z" style="fill:#5a11a2;"></path>
        <path d="M39.843,355l8.662,5.001l0,-2l-10.395,-6.002l1.733,3.001Z" style="fill:#461788;"></path>
        <path d="M57.168,355l-8.663,5.001l0,-2l10.395,-6.002l-1.732,3.001Z" style="fill:#71009c;"></path>
        <path d="M38.11,342.004l10.395,6.002l0,-4.002l-6.93,-4.001l-3.465,2.001Z" style="fill:#7d00bc;"></path>
        <path d="M58.9,342.004l-10.395,6.002l0,-4.002l6.93,-4.001l3.465,2.001Z" style="fill:#9811db;"></path>
        <path d="M41.575,340.003l6.93,4.001l6.93,-4.001l-6.93,-4.002l-6.93,4.002Z" style="fill:#a90ce2;"></path>
    </g>
    <g id="globe_purple2" serif:id="globe_purple">
        <path d="M162.652,266.327l-2.296,-1.325l3.465,-2.001l6.93,4.002l0,4.001l0.01,9.989l-0.01,-9.989l10.395,-6.002l0.01,10.001l-0.02,0.012l-1.722,2.983l-8.663,5.002l-8.662,-5.002l-1.733,-3.001l0.011,0.006l-0.011,-10.001l2.296,1.325Zm8.099,15.823l0,-1.151l0,1.151Zm10.395,-17.148l-10.395,6.002l0,-4.001l6.93,-4.002l3.465,2.001Zm-17.325,-2.001l6.93,4.002l6.93,-4.002l-6.93,-4.001l-6.93,4.001Z" style="fill:#3716a2;"></path>
        <path d="M181.141,265.005l-10.395,6.002l0.01,10.001l10.395,-6.002l-0.01,-10.001Z" style="fill:#7d12b7;"></path>
        <path d="M160.351,265.005l10.395,6.002l0.01,10.001l-10.395,-6.002l-0.01,-10.001Z" style="fill:#5a11a2;"></path>
        <path d="M162.084,278.001l8.662,5.002l0,-2.001l-10.395,-6.002l1.733,3.001Z" style="fill:#461788;"></path>
        <path d="M179.409,278.001l-8.663,5.002l0,-2.001l10.395,-6.002l-1.732,3.001Z" style="fill:#71009c;"></path>
        <path d="M160.351,265.005l10.395,6.002l0,-4.001l-6.93,-4.002l-3.465,2.001Z" style="fill:#7d00bc;"></path>
        <path d="M181.141,265.005l-10.395,6.002l0,-4.001l6.93,-4.002l3.465,2.001Z" style="fill:#9811db;"></path>
        <path d="M163.816,263.004l6.93,4.002l6.93,-4.002l-6.93,-4.001l-6.93,4.001Z" style="fill:#a90ce2;"></path>
    </g>
    <g id="treeTop">
        <path d="M122.365,14.655l-4.591,-2.651l6.93,-4.001l13.86,8.002l0,8.003l0.021,19.979l-0.021,-19.979l20.79,-12.004l0.02,20.002l-0.041,0.024l-3.444,5.967l-17.325,10.003l-17.325,-10.003l-3.465,-6.002l0.021,0.011l-0.021,-20.002l4.591,2.651Zm16.199,31.646l0,-2.302l0,2.302Zm20.79,-34.297l-20.79,12.004l0,-8.003l13.86,-8.002l6.93,4.001Zm-34.65,-4.001l13.86,8.002l13.86,-8.002l-13.86,-8.003l-13.86,8.003Z" style="fill:#ffda00;"></path>
        <path d="M159.354,12.004l-20.79,12.004l0.021,20.002l20.789,-12.004l-0.02,-20.002Z" style="fill:#ffda00;"></path>
        <path d="M117.774,12.004l20.79,12.004l0.021,20.002l-20.79,-12.004l-0.021,-20.002Z" style="fill:#f1bc00;"></path>
        <path d="M121.239,37.997l17.325,10.003l0,-4.001l-20.79,-12.004l3.465,6.002Z" style="fill:#e5ad00;"></path>
        <path d="M155.889,37.997l-17.325,10.003l0,-4.001l20.79,-12.004l-3.465,6.002Z" style="fill:#f3c800;"></path>
        <path d="M117.774,12.004l20.79,12.004l0,-8.003l-13.86,-8.002l-6.93,4.001Z" style="fill:#f8c700;"></path>
        <path d="M159.354,12.004l-20.79,12.004l0,-8.003l13.86,-8.002l6.93,4.001Z" style="fill:#ffe200;"></path>
        <path d="M124.704,8.003l13.86,8.002l13.86,-8.002l-13.86,-8.003l-13.86,8.003Z" style="fill:#fe0;"></path>
    </g>
    <path d="M199.923,278.009l-6.928,3.994l3.466,5.993l6.926,-3.999l-3.464,-5.988Z" style="fill:#8f0812;"></path>
    <path d="M251.923,335.009l-6.928,3.994l3.466,5.993l6.926,-3.999l-3.464,-5.988Z" style="fill:#8f0812;"></path>
    <path d="M121.459,301.009l6.928,3.994l-3.467,5.993l-6.925,-3.999l3.464,-5.988Z" style="fill:#8f0812;"></path>
    <path d="M93.459,153.009l6.928,3.994l-3.467,5.993l-6.925,-3.999l3.464,-5.988Z" style="fill:#8f0812;"></path>
    <path d="M67.54,367.006l6.928,3.994l-3.467,5.993l-6.925,-3.999l3.464,-5.988Z" style="fill:#8f0812;"></path>
    <path d="M123.441,117.007l6.928,3.994l-3.466,5.992l-6.926,-3.998l3.464,-5.988Z" style="fill:#8f0812;"></path>
    <path d="M197.467,178.007l-6.929,3.994l3.467,5.993l6.926,-3.998l-3.464,-5.989Z" style="fill:#009bb3;"></path>
    <path d="M158.467,290.007l-6.929,3.994l3.467,5.993l6.926,-3.998l-3.464,-5.989Z" style="fill:#009bb3;"></path>
    <path d="M100.451,254.004l6.928,3.995l-3.466,5.992l-6.926,-3.998l3.464,-5.989Z" style="fill:#009bb3;"></path>
    <path d="M29.451,333.004l6.928,3.995l-3.466,5.992l-6.926,-3.998l3.464,-5.989Z" style="fill:#009bb3;"></path>
    <path d="M218.249,363.929l-6.929,3.994l3.467,5.993l6.926,-3.999l-3.464,-5.988Z" style="fill:#009bb3;"></path>
    <path d="M169.738,158.013l-6.928,3.994l3.467,5.993l6.926,-3.999l-3.465,-5.988Z" style="fill:#7c13b7;"></path>
    <path d="M213.738,227.013l-6.928,3.994l3.467,5.993l6.926,-3.999l-3.465,-5.988Z" style="fill:#7c13b7;"></path>
    <path d="M121.236,194.004l6.928,3.995l-3.467,5.992l-6.925,-3.998l3.464,-5.989Z" style="fill:#7c13b7;"></path>
    <path d="M76.408,276.007l6.928,3.994l-3.467,5.992l-6.925,-3.998l3.464,-5.988Z" style="fill:#7c13b7;"></path>
    <path d="M116.408,391.007l6.928,3.994l-3.467,5.992l-6.925,-3.998l3.464,-5.988Z" style="fill:#7c13b7;"></path>
    <path d="M193.995,344.003l-6.928,3.994l3.466,5.993l6.926,-3.999l-3.464,-5.988Z" style="fill:#7c13b7;"></path>
    <path d="M155.882,206.013l-6.928,3.994l3.466,5.993l6.926,-3.999l-3.464,-5.988Z" style="fill:#ffd900;"></path>
    <path d="M158.882,395.013l-6.928,3.994l3.466,5.993l6.926,-3.999l-3.464,-5.988Z" style="fill:#ffd900;"></path>
    <path d="M170.882,105.013l-6.928,3.994l3.466,5.993l6.926,-3.999l-3.464,-5.988Z" style="fill:#ffd900;"></path>
    <path d="M85.687,186.007l6.928,3.994l-3.466,5.993l-6.926,-3.998l3.464,-5.989Z" style="fill:#ffd900;"></path>
    <path d="M69.508,334.001l6.928,3.995l-3.467,5.992l-6.925,-3.998l3.464,-5.989Z" style="fill:#ffd900;"></path>
</svg>
